<?xml version="1.0" standalone="no"?>
<!DOCTYPE svg PUBLIC "-//W3C//DTD SVG 20010904//EN"
 "http://www.w3.org/TR/2001/REC-SVG-20010904/DTD/svg10.dtd">
<svg version="1.0" xmlns="http://www.w3.org/2000/svg"
 width="7730.000000pt" height="7730.000000pt" viewBox="0 0 7730.000000 7730.000000"
 preserveAspectRatio="xMidYMid meet">

<g transform="translate(0.000000,7730.000000) scale(0.100000,-0.100000)"
fill="#000000" stroke="none">
<path d="M33545 49333 c-108 -9 -344 -47 -464 -74 -887 -202 -1639 -772 -2037
-1543 -202 -391 -290 -722 -315 -1181 -14 -275 -6 -2876 10 -2995 34 -256 90
-489 166 -697 92 -251 288 -593 471 -823 98 -122 371 -391 499 -491 483 -377
986 -588 1635 -686 108 -16 511 -18 6910 -21 6038 -2 6810 -1 6929 13 949 108
1773 675 2207 1519 184 359 282 725 304 1141 12 232 12 2425 0 2655 -23 432
-118 791 -310 1170 -227 447 -578 838 -1008 1123 -419 279 -901 441 -1416 477
-83 6 -792 31 -1576 55 -784 25 -3189 101 -5345 170 -2156 68 -4008 127 -4115
130 -107 3 -613 19 -1125 35 -823 26 -1294 34 -1420 23z m2715 -1998 c433 -65
829 -247 1157 -529 494 -425 767 -1066 715 -1678 -15 -180 -41 -307 -97 -475
-238 -714 -877 -1237 -1667 -1363 -37 -5 -129 -14 -205 -19 -549 -37 -1131
148 -1563 496 -105 85 -313 303 -384 402 -193 270 -313 553 -365 860 -117 689
140 1376 684 1829 340 284 758 452 1235 496 88 8 387 -4 490 -19z m9000 -259
c218 -41 377 -94 566 -186 424 -207 781 -574 968 -997 236 -533 231 -1116 -15
-1631 -284 -597 -852 -1003 -1529 -1093 -130 -17 -410 -15 -544 5 -466 68
-874 278 -1201 617 -681 706 -751 1780 -167 2546 306 401 761 667 1282 747
128 20 519 15 640 -8z"/>
<path d="M51735 41373 c-239 -19 -324 -28 -473 -49 -1998 -284 -3827 -1665
-4811 -3632 -409 -818 -652 -1650 -746 -2552 -12 -116 -35 -456 -35 -515 0 -8
-28 -1 -84 21 -185 74 -441 139 -666 171 -187 26 -1012 26 -1180 0 -655 -104
-1222 -366 -1725 -798 -124 -106 -374 -363 -471 -485 -416 -520 -703 -1151
-820 -1802 -15 -83 -22 -101 -34 -96 -8 3 -80 27 -160 54 -351 117 -795 177
-1000 136 -182 -37 -331 -116 -456 -240 -130 -131 -193 -279 -181 -431 5 -65
46 -172 482 -1240 262 -643 490 -1191 507 -1218 62 -97 197 -184 348 -224 95
-25 299 -22 405 6 156 41 382 172 603 350 57 46 104 82 105 80 33 -53 225
-260 326 -353 474 -436 985 -644 1886 -770 475 -66 1209 -114 1442 -94 48 4
153 5 233 2 124 -5 357 10 1640 105 822 61 1648 122 1835 136 187 14 486 36
665 50 474 36 3824 281 5115 375 611 44 1130 82 1155 84 25 3 101 8 170 12 69
3 130 9 135 13 6 3 36 4 68 2 42 -2 65 2 84 14 14 9 23 12 19 7 -4 -7 14 -9
51 -7 32 1 58 4 58 5 0 1 51 4 114 6 63 2 116 6 118 8 8 8 -29 56 -43 56 -8 0
-14 5 -14 10 0 6 -6 10 -13 10 -7 0 -17 10 -22 22 -6 13 -24 26 -42 30 -25 7
-33 14 -33 31 0 28 -18 47 -43 47 -11 0 -43 25 -72 55 -30 32 -61 55 -73 55
-15 0 -22 7 -24 28 -2 19 -8 26 -20 24 -11 -2 -18 3 -18 13 0 8 -9 15 -20 15
-13 0 -20 7 -20 20 0 12 -7 20 -16 20 -9 0 -18 9 -21 20 -3 11 -14 20 -24 20
-13 0 -19 7 -19 24 0 14 -4 28 -10 31 -5 3 -10 -2 -10 -12 0 -14 -2 -15 -9 -4
-5 8 -7 20 -4 28 4 9 -5 13 -29 13 -27 0 -37 6 -51 30 -10 17 -25 30 -33 30
-8 0 -14 5 -14 11 0 14 -55 69 -69 69 -6 0 -11 5 -11 10 0 6 -6 10 -13 10 -7
0 -17 10 -22 22 -6 12 -24 26 -41 30 -19 5 -34 16 -37 28 -3 11 -13 23 -23 27
-10 4 -28 17 -40 30 -12 13 -31 23 -43 23 -15 0 -21 6 -21 23 -1 32 -23 57
-54 57 -14 0 -26 5 -26 11 0 14 -55 69 -69 69 -6 0 -11 9 -11 20 0 12 -7 20
-16 20 -9 0 -18 9 -21 20 -3 11 -14 20 -24 20 -13 0 -19 7 -19 24 0 14 -4 28
-10 31 -6 3 -10 -4 -10 -17 -1 -23 -1 -23 -16 -3 -9 12 -11 21 -4 23 23 8 8
22 -25 22 -19 0 -35 4 -35 10 0 15 -33 50 -47 50 -7 0 -13 5 -13 12 0 14 -79
88 -94 88 -6 0 -16 10 -21 22 -6 12 -24 25 -40 30 -17 4 -49 28 -75 58 -29 32
-52 50 -67 50 -19 0 -23 5 -23 31 0 24 -4 30 -15 25 -9 -3 -15 0 -15 9 0 9
-10 15 -24 15 -19 0 -25 6 -28 27 -2 17 -10 27 -23 29 -11 2 -21 8 -23 13 -2
6 -8 11 -14 11 -16 0 -98 92 -98 111 0 10 -4 21 -10 24 -6 3 -10 -4 -10 -17
-1 -23 -1 -23 -16 -3 -9 12 -11 21 -4 23 23 8 8 22 -23 22 -26 0 -36 6 -50 30
-10 17 -25 30 -33 30 -8 0 -14 5 -14 10 0 6 -6 10 -13 10 -7 0 -17 10 -22 22
-6 13 -24 26 -42 30 -25 7 -33 14 -33 31 0 28 -18 47 -43 47 -11 0 -43 25 -72
55 -30 32 -61 55 -73 55 -15 0 -22 7 -24 28 -2 19 -8 26 -20 24 -11 -2 -18 3
-18 13 0 8 -9 15 -20 15 -11 0 -20 5 -20 11 0 12 -55 69 -67 69 -4 0 -23 18
-42 40 -19 22 -41 40 -50 40 -9 0 -25 14 -34 30 -10 17 -23 30 -28 30 -13 0
-30 17 -53 53 -10 15 -25 27 -32 27 -8 0 -14 5 -14 10 0 6 -6 10 -13 10 -7 0
-17 10 -22 22 -6 13 -24 26 -42 30 -25 7 -33 14 -33 31 0 28 -18 47 -43 47
-11 0 -43 25 -72 55 -30 32 -61 55 -73 55 -15 0 -22 7 -24 28 -2 19 -8 26 -20
24 -11 -2 -18 3 -18 13 0 8 -9 15 -20 15 -13 0 -20 7 -20 19 0 10 -9 21 -20
24 -11 3 -20 12 -20 21 0 9 -8 16 -20 16 -15 0 -20 7 -20 24 0 14 -4 28 -10
31 -5 3 -10 -2 -10 -12 0 -14 -2 -15 -9 -4 -5 8 -7 20 -4 28 4 9 -5 13 -29 13
-27 0 -37 6 -51 30 -10 17 -25 30 -33 30 -8 0 -14 5 -14 11 0 14 -55 69 -69
69 -6 0 -11 5 -11 10 0 6 -6 10 -13 10 -7 0 -17 10 -22 22 -6 12 -24 26 -41
30 -19 5 -34 16 -37 28 -3 11 -13 23 -23 27 -10 4 -28 17 -40 30 -12 13 -31
23 -43 23 -15 0 -21 6 -21 23 -1 32 -23 57 -54 57 -14 0 -26 5 -26 11 0 14
-55 69 -69 69 -6 0 -11 8 -11 19 0 10 -9 21 -20 24 -11 3 -20 12 -20 21 0 9
-8 16 -20 16 -15 0 -20 7 -20 24 0 14 -4 28 -10 31 -6 3 -10 -4 -10 -17 -1
-23 -1 -23 -16 -3 -9 12 -11 21 -4 23 23 8 8 22 -25 22 -19 0 -35 4 -35 10 0
15 -33 50 -47 50 -7 0 -13 5 -13 12 0 14 -79 88 -94 88 -6 0 -16 10 -21 22 -6
12 -24 25 -40 30 -17 4 -49 28 -75 58 -29 32 -52 50 -67 50 -19 0 -23 5 -23
31 0 24 -4 30 -15 25 -9 -3 -15 0 -15 9 0 9 -10 15 -24 15 -19 0 -25 6 -28 27
-2 17 -10 27 -23 29 -11 2 -21 8 -23 13 -2 6 -8 11 -14 11 -16 0 -98 92 -98
111 0 10 -4 21 -10 24 -6 3 -10 -4 -10 -17 -1 -23 -1 -23 -16 -3 -9 12 -11 21
-4 23 23 8 8 22 -23 22 -26 0 -36 6 -50 30 -10 17 -25 30 -33 30 -8 0 -14 5
-14 10 0 6 -6 10 -13 10 -7 0 -17 10 -22 22 -6 13 -24 26 -42 30 -25 7 -33 14
-33 31 0 28 -18 47 -43 47 -11 0 -43 25 -72 55 -30 32 -61 55 -73 55 -15 0
-22 7 -24 28 -2 19 -8 26 -20 24 -11 -2 -18 3 -18 13 0 8 -9 15 -20 15 -11 0
-20 5 -20 11 0 12 -55 69 -67 69 -4 0 -23 18 -42 40 -19 22 -41 40 -50 40 -9
0 -25 14 -34 30 -10 17 -23 30 -28 30 -13 0 -30 17 -53 53 -10 15 -25 27 -32
27 -8 0 -14 5 -14 10 0 6 -6 10 -13 10 -7 0 -17 10 -22 22 -6 13 -24 26 -42
30 -25 7 -33 14 -33 31 0 28 -18 47 -43 47 -11 0 -43 25 -72 55 -30 32 -61 55
-73 55 -15 0 -22 7 -24 28 -2 19 -8 26 -20 24 -11 -2 -18 3 -18 13 0 8 -9 15
-20 15 -13 0 -20 7 -20 19 0 10 -9 21 -20 24 -11 3 -20 12 -20 21 0 9 -8 16
-20 16 -15 0 -20 7 -20 24 0 14 -4 28 -10 31 -5 3 -10 -2 -10 -12 0 -14 -2
-15 -9 -4 -5 8 -7 20 -4 28 4 9 -5 13 -29 13 -27 0 -37 6 -51 30 -10 17 -25
30 -33 30 -8 0 -14 5 -14 11 0 14 -55 69 -69 69 -6 0 -11 5 -11 10 0 6 -6 10
-13 10 -7 0 -17 10 -22 22 -6 12 -24 26 -41 30 -19 5 -34 16 -37 28 -3 11 -13
23 -23 27 -10 4 -28 17 -40 30 -12 13 -31 23 -43 23 -15 0 -21 6 -21 23 -1 32
-23 57 -54 57 -14 0 -26 5 -26 11 0 14 -55 69 -69 69 -6 0 -11 9 -11 20 0 12
-7 20 -16 20 -9 0 -18 9 -21 20 -3 11 -14 20 -24 20 -13 0 -19 7 -19 24 0 14
-4 28 -10 31 -6 3 -10 -4 -10 -17 -1 -23 -1 -23 -16 -3 -9 12 -11 21 -4 23 23
8 8 22 -25 22 -19 0 -35 4 -35 10 0 15 -33 50 -47 50 -7 0 -13 5 -13 12 0 14
-79 88 -94 88 -6 0 -16 10 -21 22 -6 12 -24 25 -40 30 -17 4 -49 28 -75 58
-29 32 -52 50 -67 50 -19 0 -23 5 -23 31 0 24 -4 30 -15 25 -9 -3 -15 0 -15 9
0 9 -10 15 -24 15 -19 0 -25 6 -28 27 -2 17 -10 27 -23 29 -11 2 -21 8 -23 13
-2 6 -8 11 -14 11 -16 0 -98 92 -98 111 0 10 -4 21 -10 24 -6 3 -10 -4 -10
-17 -1 -23 -1 -23 -16 -3 -9 12 -11 21 -4 23 23 8 8 22 -23 22 -26 0 -36 6
-50 30 -10 17 -25 30 -33 30 -8 0 -14 5 -14 10 0 6 -6 10 -13 10 -7 0 -17 10
-22 22 -6 13 -24 26 -42 30 -25 7 -33 14 -33 31 0 28 -18 47 -43 47 -11 0 -43
25 -72 55 -30 32 -61 55 -73 55 -15 0 -22 7 -24 28 -2 19 -8 26 -20 24 -11 -2
-18 3 -18 13 0 8 -9 15 -20 15 -11 0 -20 5 -20 11 0 12 -55 69 -67 69 -4 0
-23 18 -42 40 -19 22 -41 40 -50 40 -9 0 -25 14 -34 30 -10 17 -23 30 -28 30
-13 0 -30 17 -53 53 -10 15 -25 27 -32 27 -8 0 -14 5 -14 10 0 6 -6 10 -13 10
-7 0 -17 10 -22 22 -6 13 -24 26 -42 30 -25 7 -33 14 -33 31 0 28 -18 47 -43
47 -11 0 -43 25 -72 55 -30 32 -61 55 -73 55 -15 0 -22 7 -24 28 -2 19 -8 26
-20 24 -11 -2 -18 3 -18 13 0 8 -9 15 -20 15 -13 0 -20 7 -20 19 0 10 -9 21
-20 24 -11 3 -20 12 -20 21 0 9 -8 16 -20 16 -15 0 -20 7 -20 24 0 14 -4 28
-10 31 -5 3 -10 -2 -10 -12 0 -14 -2 -15 -9 -4 -5 8 -7 20 -4 28 4 9 -5 13
-29 13 -27 0 -37 6 -51 30 -10 17 -25 30 -33 30 -8 0 -14 5 -14 11 0 14 -55
69 -69 69 -6 0 -11 5 -11 10 0 6 -6 10 -13 10 -7 0 -17 10 -22 22 -6 12 -24
26 -41 30 -19 5 -34 16 -37 28 -3 11 -13 23 -23 27 -10 4 -28 17 -40 30 -12
13 -31 23 -43 23 -15 0 -21 6 -21 23 -1 32 -23 57 -54 57 -14 0 -26 5 -26 11
0 14 -55 69 -69 69 -6 0 -11 8 -11 19 0 10 -9 21 -20 24 -11 3 -20 12 -20 21
0 9 -8 16 -20 16 -15 0 -20 7 -20 24 0 14 -4 28 -10 31 -6 3 -10 -4 -10 -17
-1 -23 -1 -23 -16 -3 -9 12 -11 21 -4 23 23 8 8 22 -25 22 -19 0 -35 5 -35 10
0 20 -39 53 -54 47 -21 -8 -20 -5 4 23 12 13 19 29 16 36 -3 7 1 18 9 24 8 6
11 19 8 28 -6 14 -4 15 8 5 13 -10 15 -8 13 17 -3 38 7 38 44 0 17 -16 36 -30
43 -30 7 0 -9 20 -35 43 -41 38 -45 45 -32 56 9 7 15 16 14 19 -4 16 131 295
229 477 1015 1879 2813 3177 4760 3434 130 17 323 35 478 44 28 2 -58 3 -190
4 -132 0 -258 -2 -280 -4z m-5101 -4255 c-3 -4 -11 -5 -19 -1 -21 7 -19 12 4
10 11 0 18 -5 15 -9z m-29 -39 c-4 -5 -1 -9 4 -9 6 0 11 6 11 13 0 8 4 7 10
-3 5 -8 9 -24 9 -35 -1 -18 -2 -18 -7 2 -5 17 -11 20 -22 13 -8 -6 -10 -10 -3
-10 6 0 10 -11 8 -25 -1 -15 4 -29 13 -34 11 -6 9 -8 -10 -8 -23 0 -25 3 -21
28 2 16 -1 37 -7 49 -8 14 -8 20 0 20 6 0 8 5 4 12 -4 7 -3 8 5 4 6 -4 9 -12
6 -17z m-25 -63 c0 -3 -4 -8 -10 -11 -5 -3 -10 -1 -10 4 0 6 5 11 10 11 6 0
10 -2 10 -4z m29 -80 c-3 -3 -11 5 -18 17 -13 21 -12 21 5 5 10 -10 16 -20 13
-22z m71 -46 c0 -5 -2 -10 -4 -10 -3 0 -8 5 -11 10 -3 6 -1 10 4 10 6 0 11 -4
11 -10z m40 -40 c0 -5 -7 -7 -15 -4 -8 4 -15 8 -15 10 0 2 7 4 15 4 8 0 15 -4
15 -10z m40 -40 c0 -5 -2 -10 -4 -10 -3 0 -8 5 -11 10 -3 6 -1 10 4 10 6 0 11
-4 11 -10z m120 -6 c0 -14 -3 -14 -15 -4 -8 7 -15 14 -15 16 0 2 7 4 15 4 8 0
15 -7 15 -16z m180 -49 c10 -12 10 -15 -4 -15 -9 0 -16 7 -16 15 0 8 2 15 4
15 2 0 9 -7 16 -15z m-143 -70 c8 -23 0 -25 -21 -4 -18 17 -18 19 -2 19 9 0
19 -7 23 -15z m41 -44 c3 -8 -1 -12 -9 -9 -7 2 -15 10 -17 17 -3 8 1 12 9 9 7
-2 15 -10 17 -17z m37 -31 c3 -5 1 -10 -4 -10 -6 0 -11 5 -11 10 0 6 2 10 4
10 3 0 8 -4 11 -10z m91 -87 c-7 -7 -26 7 -26 19 0 6 6 6 15 -2 9 -7 13 -15
11 -17z m69 -53 c3 -6 -1 -7 -9 -4 -18 7 -21 14 -7 14 6 0 13 -4 16 -10z m45
-40 c0 -5 -4 -10 -9 -10 -6 0 -13 5 -16 10 -3 6 1 10 9 10 9 0 16 -4 16 -10z
m115 -100 c3 -5 1 -10 -4 -10 -6 0 -11 5 -11 10 0 6 2 10 4 10 3 0 8 -4 11
-10z m41 -48 c-4 -3 -14 2 -24 12 -16 18 -16 18 6 6 13 -6 21 -14 18 -18z m44
-32 c0 -5 -2 -10 -4 -10 -3 0 -8 5 -11 10 -3 6 -1 10 4 10 6 0 11 -4 11 -10z
m300 -55 c10 -12 10 -15 -4 -15 -9 0 -16 7 -16 15 0 8 2 15 4 15 2 0 9 -7 16
-15z m-100 -31 c0 -14 -3 -14 -15 -4 -8 7 -15 14 -15 16 0 2 7 4 15 4 8 0 15
-7 15 -16z m37 -124 c3 -11 14 -20 24 -20 11 0 19 -4 19 -10 0 -5 -9 -10 -20
-10 -11 0 -20 4 -20 10 0 5 -10 18 -22 30 -19 18 -20 20 -4 20 10 0 20 -9 23
-20z m164 -147 c13 -16 12 -17 -3 -4 -17 13 -22 21 -14 21 2 0 10 -8 17 -17z
m64 -53 c10 -11 16 -20 13 -20 -3 0 -13 9 -23 20 -10 11 -16 20 -13 20 3 0 13
-9 23 -20z m101 -97 c-7 -7 -26 7 -26 19 0 6 6 6 15 -2 9 -7 13 -15 11 -17z
m69 -53 c3 -5 1 -10 -4 -10 -6 0 -11 5 -11 10 0 6 2 10 4 10 3 0 8 -4 11 -10z
m41 -48 c-4 -3 -14 2 -24 12 -16 18 -16 18 6 6 13 -6 21 -14 18 -18z m44 -32
c0 -5 -2 -10 -4 -10 -3 0 -8 5 -11 10 -3 6 -1 10 4 10 6 0 11 -4 11 -10z m300
-55 c10 -12 10 -15 -4 -15 -9 0 -16 7 -16 15 0 8 2 15 4 15 2 0 9 -7 16 -15z
m-100 -31 c0 -14 -3 -14 -15 -4 -8 7 -15 14 -15 16 0 2 7 4 15 4 8 0 15 -7 15
-16z m-2 -83 c3 -8 -1 -12 -9 -9 -7 2 -15 10 -17 17 -3 8 1 12 9 9 7 -2 15
-10 17 -17z m39 -36 c8 -23 0 -25 -21 -4 -18 17 -18 19 -2 19 9 0 19 -7 23
-15z m169 -150 c20 -19 33 -35 27 -35 -5 0 -24 16 -43 35 -19 19 -31 35 -28
35 4 0 23 -16 44 -35z m194 -125 c0 -5 -2 -10 -4 -10 -3 0 -8 5 -11 10 -3 6
-1 10 4 10 6 0 11 -4 11 -10z m40 -80 c0 -5 -2 -10 -4 -10 -3 0 -8 5 -11 10
-3 6 -1 10 4 10 6 0 11 -4 11 -10z m40 -40 c0 -5 -2 -10 -4 -10 -3 0 -8 5 -11
10 -3 6 -1 10 4 10 6 0 11 -4 11 -10z m340 -95 c10 -12 10 -15 -4 -15 -9 0
-16 7 -16 15 0 8 2 15 4 15 2 0 9 -7 16 -15z m-143 -72 c3 -7 -3 -9 -16 -6
-12 3 -21 10 -21 15 0 13 32 6 37 -9z m41 -42 c3 -8 -1 -12 -9 -9 -7 2 -15 10
-17 17 -3 8 1 12 9 9 7 -2 15 -10 17 -17z m37 -32 c11 -17 2 -18 -19 -3 -17
12 -17 14 -4 14 9 0 20 -5 23 -11z m80 -79 c3 -6 -1 -7 -9 -4 -18 7 -21 14 -7
14 6 0 13 -4 16 -10z m91 -75 c20 -19 33 -35 27 -35 -5 0 -24 16 -43 35 -19
19 -31 35 -28 35 4 0 23 -16 44 -35z m114 -99 c0 -2 -7 -7 -16 -10 -8 -3 -12
-2 -9 4 6 10 25 14 25 6z m49 -60 c-3 -3 -11 5 -18 17 -13 21 -12 21 5 5 10
-10 16 -20 13 -22z m71 -46 c0 -5 -2 -10 -4 -10 -3 0 -8 5 -11 10 -3 6 -1 10
4 10 6 0 11 -4 11 -10z m40 -40 c0 -5 -7 -7 -15 -4 -8 4 -15 8 -15 10 0 2 7 4
15 4 8 0 15 -4 15 -10z m40 -40 c0 -5 -2 -10 -4 -10 -3 0 -8 5 -11 10 -3 6 -1
10 4 10 6 0 11 -4 11 -10z m120 -6 c0 -14 -3 -14 -15 -4 -8 7 -15 14 -15 16 0
2 7 4 15 4 8 0 15 -7 15 -16z m180 -49 c10 -12 10 -15 -4 -15 -9 0 -16 7 -16
15 0 8 2 15 4 15 2 0 9 -7 16 -15z m-143 -70 c8 -23 0 -25 -21 -4 -18 17 -18
19 -2 19 9 0 19 -7 23 -15z m41 -44 c3 -8 -1 -12 -9 -9 -7 2 -15 10 -17 17 -3
8 1 12 9 9 7 -2 15 -10 17 -17z m37 -31 c3 -5 1 -10 -4 -10 -6 0 -11 5 -11 10
0 6 2 10 4 10 3 0 8 -4 11 -10z m91 -87 c-7 -7 -26 7 -26 19 0 6 6 6 15 -2 9
-7 13 -15 11 -17z m69 -53 c3 -6 -1 -7 -9 -4 -18 7 -21 14 -7 14 6 0 13 -4 16
-10z m45 -40 c0 -5 -4 -10 -9 -10 -6 0 -13 5 -16 10 -3 6 1 10 9 10 9 0 16 -4
16 -10z m115 -100 c3 -5 1 -10 -4 -10 -6 0 -11 5 -11 10 0 6 2 10 4 10 3 0 8
-4 11 -10z m41 -48 c-4 -3 -14 2 -24 12 -16 18 -16 18 6 6 13 -6 21 -14 18
-18z m44 -32 c0 -5 -2 -10 -4 -10 -3 0 -8 5 -11 10 -3 6 -1 10 4 10 6 0 11 -4
11 -10z m300 -55 c10 -12 10 -15 -4 -15 -9 0 -16 7 -16 15 0 8 2 15 4 15 2 0
9 -7 16 -15z m-100 -31 c0 -14 -3 -14 -15 -4 -8 7 -15 14 -15 16 0 2 7 4 15 4
8 0 15 -7 15 -16z m37 -124 c3 -11 14 -20 24 -20 11 0 19 -4 19 -10 0 -5 -9
-10 -20 -10 -11 0 -20 4 -20 10 0 5 -10 18 -22 30 -19 18 -20 20 -4 20 10 0
20 -9 23 -20z m164 -147 c13 -16 12 -17 -3 -4 -17 13 -22 21 -14 21 2 0 10 -8
17 -17z m64 -53 c10 -11 16 -20 13 -20 -3 0 -13 9 -23 20 -10 11 -16 20 -13
20 3 0 13 -9 23 -20z m101 -97 c-7 -7 -26 7 -26 19 0 6 6 6 15 -2 9 -7 13 -15
11 -17z m69 -53 c3 -5 1 -10 -4 -10 -6 0 -11 5 -11 10 0 6 2 10 4 10 3 0 8 -4
11 -10z m41 -48 c-4 -3 -14 2 -24 12 -16 18 -16 18 6 6 13 -6 21 -14 18 -18z
m44 -32 c0 -5 -2 -10 -4 -10 -3 0 -8 5 -11 10 -3 6 -1 10 4 10 6 0 11 -4 11
-10z m300 -55 c10 -12 10 -15 -4 -15 -9 0 -16 7 -16 15 0 8 2 15 4 15 2 0 9
-7 16 -15z m-100 -31 c0 -14 -3 -14 -15 -4 -8 7 -15 14 -15 16 0 2 7 4 15 4 8
0 15 -7 15 -16z m-2 -83 c3 -8 -1 -12 -9 -9 -7 2 -15 10 -17 17 -3 8 1 12 9 9
7 -2 15 -10 17 -17z m39 -36 c8 -23 0 -25 -21 -4 -18 17 -18 19 -2 19 9 0 19
-7 23 -15z m169 -150 c20 -19 33 -35 27 -35 -5 0 -24 16 -43 35 -19 19 -31 35
-28 35 4 0 23 -16 44 -35z m194 -125 c0 -5 -2 -10 -4 -10 -3 0 -8 5 -11 10 -3
6 -1 10 4 10 6 0 11 -4 11 -10z m40 -80 c0 -5 -2 -10 -4 -10 -3 0 -8 5 -11 10
-3 6 -1 10 4 10 6 0 11 -4 11 -10z m40 -40 c0 -5 -2 -10 -4 -10 -3 0 -8 5 -11
10 -3 6 -1 10 4 10 6 0 11 -4 11 -10z m340 -95 c10 -12 10 -15 -4 -15 -9 0
-16 7 -16 15 0 8 2 15 4 15 2 0 9 -7 16 -15z m-143 -72 c3 -7 -3 -9 -16 -6
-12 3 -21 10 -21 15 0 13 32 6 37 -9z m41 -42 c3 -8 -1 -12 -9 -9 -7 2 -15 10
-17 17 -3 8 1 12 9 9 7 -2 15 -10 17 -17z m37 -32 c11 -17 2 -18 -19 -3 -17
12 -17 14 -4 14 9 0 20 -5 23 -11z m80 -79 c3 -6 -1 -7 -9 -4 -18 7 -21 14 -7
14 6 0 13 -4 16 -10z m91 -75 c20 -19 33 -35 27 -35 -5 0 -24 16 -43 35 -19
19 -31 35 -28 35 4 0 23 -16 44 -35z m114 -99 c0 -2 -7 -7 -16 -10 -8 -3 -12
-2 -9 4 6 10 25 14 25 6z m49 -60 c-3 -3 -11 5 -18 17 -13 21 -12 21 5 5 10
-10 16 -20 13 -22z m71 -46 c0 -5 -2 -10 -4 -10 -3 0 -8 5 -11 10 -3 6 -1 10
4 10 6 0 11 -4 11 -10z m40 -40 c0 -5 -7 -7 -15 -4 -8 4 -15 8 -15 10 0 2 7 4
15 4 8 0 15 -4 15 -10z m40 -40 c0 -5 -2 -10 -4 -10 -3 0 -8 5 -11 10 -3 6 -1
10 4 10 6 0 11 -4 11 -10z m120 -6 c0 -14 -3 -14 -15 -4 -8 7 -15 14 -15 16 0
2 7 4 15 4 8 0 15 -7 15 -16z m180 -49 c10 -12 10 -15 -4 -15 -9 0 -16 7 -16
15 0 8 2 15 4 15 2 0 9 -7 16 -15z m-143 -70 c8 -23 0 -25 -21 -4 -18 17 -18
19 -2 19 9 0 19 -7 23 -15z m41 -44 c3 -8 -1 -12 -9 -9 -7 2 -15 10 -17 17 -3
8 1 12 9 9 7 -2 15 -10 17 -17z m37 -31 c3 -5 1 -10 -4 -10 -6 0 -11 5 -11 10
0 6 2 10 4 10 3 0 8 -4 11 -10z m91 -87 c-7 -7 -26 7 -26 19 0 6 6 6 15 -2 9
-7 13 -15 11 -17z m69 -53 c3 -6 -1 -7 -9 -4 -18 7 -21 14 -7 14 6 0 13 -4 16
-10z m45 -40 c0 -5 -4 -10 -9 -10 -6 0 -13 5 -16 10 -3 6 1 10 9 10 9 0 16 -4
16 -10z m115 -100 c3 -5 1 -10 -4 -10 -6 0 -11 5 -11 10 0 6 2 10 4 10 3 0 8
-4 11 -10z m41 -48 c-4 -3 -14 2 -24 12 -16 18 -16 18 6 6 13 -6 21 -14 18
-18z m44 -32 c0 -5 -2 -10 -4 -10 -3 0 -8 5 -11 10 -3 6 -1 10 4 10 6 0 11 -4
11 -10z m300 -55 c10 -12 10 -15 -4 -15 -9 0 -16 7 -16 15 0 8 2 15 4 15 2 0
9 -7 16 -15z m-100 -31 c0 -14 -3 -14 -15 -4 -8 7 -15 14 -15 16 0 2 7 4 15 4
8 0 15 -7 15 -16z m37 -124 c3 -11 14 -20 24 -20 11 0 19 -4 19 -10 0 -5 -9
-10 -20 -10 -11 0 -20 4 -20 10 0 5 -10 18 -22 30 -19 18 -20 20 -4 20 10 0
20 -9 23 -20z m164 -147 c13 -16 12 -17 -3 -4 -10 7 -18 15 -18 17 0 8 8 3 21
-13z m64 -53 c10 -11 16 -20 13 -20 -3 0 -13 9 -23 20 -10 11 -16 20 -13 20 3
0 13 -9 23 -20z m101 -97 c-7 -7 -26 7 -26 19 0 6 6 6 15 -2 9 -7 13 -15 11
-17z m69 -53 c3 -5 1 -10 -4 -10 -6 0 -11 5 -11 10 0 6 2 10 4 10 3 0 8 -4 11
-10z m41 -48 c-4 -3 -14 2 -24 12 -16 18 -16 18 6 6 13 -6 21 -14 18 -18z m44
-32 c0 -5 -2 -10 -4 -10 -3 0 -8 5 -11 10 -3 6 -1 10 4 10 6 0 11 -4 11 -10z
m300 -55 c10 -12 10 -15 -4 -15 -9 0 -16 7 -16 15 0 8 2 15 4 15 2 0 9 -7 16
-15z m-100 -31 c0 -14 -3 -14 -15 -4 -8 7 -15 14 -15 16 0 2 7 4 15 4 8 0 15
-7 15 -16z m-2 -83 c3 -8 -1 -12 -9 -9 -7 2 -15 10 -17 17 -3 8 1 12 9 9 7 -2
15 -10 17 -17z m39 -36 c8 -23 0 -25 -21 -4 -18 17 -18 19 -2 19 9 0 19 -7 23
-15z m169 -150 c20 -19 33 -35 27 -35 -5 0 -24 16 -43 35 -19 19 -31 35 -28
35 4 0 23 -16 44 -35z m194 -125 c0 -5 -2 -10 -4 -10 -3 0 -8 5 -11 10 -3 6
-1 10 4 10 6 0 11 -4 11 -10z m40 -80 c0 -5 -2 -10 -4 -10 -3 0 -8 5 -11 10
-3 6 -1 10 4 10 6 0 11 -4 11 -10z m40 -40 c0 -5 -2 -10 -4 -10 -3 0 -8 5 -11
10 -3 6 -1 10 4 10 6 0 11 -4 11 -10z m340 -95 c10 -12 10 -15 -4 -15 -9 0
-16 7 -16 15 0 8 2 15 4 15 2 0 9 -7 16 -15z m-143 -72 c3 -7 -3 -9 -16 -6
-12 3 -21 10 -21 15 0 13 32 6 37 -9z m41 -42 c3 -8 -1 -12 -9 -9 -7 2 -15 10
-17 17 -3 8 1 12 9 9 7 -2 15 -10 17 -17z m37 -32 c11 -17 2 -18 -19 -3 -17
12 -17 14 -4 14 9 0 20 -5 23 -11z m80 -79 c3 -6 -1 -7 -9 -4 -18 7 -21 14 -7
14 6 0 13 -4 16 -10z m91 -75 c20 -19 33 -35 27 -35 -5 0 -24 16 -43 35 -19
19 -31 35 -28 35 4 0 23 -16 44 -35z m114 -99 c0 -2 -7 -7 -16 -10 -8 -3 -12
-2 -9 4 6 10 25 14 25 6z m49 -60 c-3 -3 -11 5 -18 17 -13 21 -12 21 5 5 10
-10 16 -20 13 -22z m71 -46 c0 -5 -2 -10 -4 -10 -3 0 -8 5 -11 10 -3 6 -1 10
4 10 6 0 11 -4 11 -10z m40 -40 c0 -5 -7 -7 -15 -4 -8 4 -15 8 -15 10 0 2 7 4
15 4 8 0 15 -4 15 -10z m40 -40 c0 -5 -2 -10 -4 -10 -3 0 -8 5 -11 10 -3 6 -1
10 4 10 6 0 11 -4 11 -10z m120 -6 c0 -14 -3 -14 -15 -4 -8 7 -15 14 -15 16 0
2 7 4 15 4 8 0 15 -7 15 -16z m180 -49 c10 -12 10 -15 -4 -15 -9 0 -16 7 -16
15 0 8 2 15 4 15 2 0 9 -7 16 -15z m-143 -70 c8 -23 0 -25 -21 -4 -18 17 -18
19 -2 19 9 0 19 -7 23 -15z m41 -44 c3 -8 -1 -12 -9 -9 -7 2 -15 10 -17 17 -3
8 1 12 9 9 7 -2 15 -10 17 -17z m37 -31 c3 -5 1 -10 -4 -10 -6 0 -11 5 -11 10
0 6 2 10 4 10 3 0 8 -4 11 -10z m91 -87 c-7 -7 -26 7 -26 19 0 6 6 6 15 -2 9
-7 13 -15 11 -17z m69 -53 c3 -6 -1 -7 -9 -4 -18 7 -21 14 -7 14 6 0 13 -4 16
-10z m45 -40 c0 -5 -4 -10 -9 -10 -6 0 -13 5 -16 10 -3 6 1 10 9 10 9 0 16 -4
16 -10z m115 -100 c3 -5 1 -10 -4 -10 -6 0 -11 5 -11 10 0 6 2 10 4 10 3 0 8
-4 11 -10z m41 -48 c-4 -3 -14 2 -24 12 -16 18 -16 18 6 6 13 -6 21 -14 18
-18z m44 -32 c0 -5 -2 -10 -4 -10 -3 0 -8 5 -11 10 -3 6 -1 10 4 10 6 0 11 -4
11 -10z m300 -55 c10 -12 10 -15 -4 -15 -9 0 -16 7 -16 15 0 8 2 15 4 15 2 0
9 -7 16 -15z m-100 -31 c0 -14 -3 -14 -15 -4 -8 7 -15 14 -15 16 0 2 7 4 15 4
8 0 15 -7 15 -16z m37 -124 c3 -11 14 -20 24 -20 11 0 19 -4 19 -10 0 -5 -9
-10 -20 -10 -11 0 -20 4 -20 10 0 5 -10 18 -22 30 -19 18 -20 20 -4 20 10 0
20 -9 23 -20z"/>
<path d="M59425 37493 c-574 -45 -1134 -208 -1611 -468 l-81 -44 24 -108 c13
-59 26 -109 27 -111 2 -1 55 30 117 71 514 334 1126 563 1689 631 281 35 279
33 70 33 -107 0 -213 -2 -235 -4z"/>
<path d="M46776 37482 c-3 -5 1 -9 9 -9 8 0 15 4 15 9 0 4 -4 8 -9 8 -6 0 -12
-4 -15 -8z"/>
<path d="M46780 37439 c0 -5 -4 -7 -10 -4 -5 3 -10 2 -10 -4 0 -5 5 -13 10
-16 6 -3 10 -1 10 5 0 6 4 8 10 5 6 -3 7 1 4 9 -7 18 -14 21 -14 5z"/>
<path d="M46744 37399 c-4 -7 -3 -9 4 -5 5 3 13 0 15 -6 4 -9 6 -10 6 -1 1 17
-16 25 -25 12z"/>
<path d="M46696 37274 c-3 -8 -10 -13 -14 -10 -5 3 -8 -5 -7 -16 2 -25 14 -32
35 -18 11 7 12 12 3 21 -6 6 -9 18 -6 25 3 8 3 14 0 14 -3 0 -8 -7 -11 -16z
m9 -35 c-10 -15 -25 -10 -19 6 4 8 10 12 15 9 5 -3 7 -10 4 -15z"/>
<path d="M46938 37173 c7 -3 16 -2 19 1 4 3 -2 6 -13 5 -11 0 -14 -3 -6 -6z"/>
<path d="M47120 37020 c0 -6 5 -10 11 -10 7 0 18 -8 26 -17 13 -16 13 -16 4 3
-11 23 -41 40 -41 24z"/>
<path d="M47200 36940 c0 -6 5 -10 11 -10 7 0 18 -8 26 -17 13 -16 13 -16 4 3
-11 23 -41 40 -41 24z"/>
<path d="M47293 36843 c-22 -8 -14 -23 12 -23 18 0 23 4 19 15 -6 16 -11 17
-31 8z"/>
<path d="M47440 36724 c0 -11 59 -64 71 -64 6 0 -5 16 -25 35 -37 35 -46 40
-46 29z"/>
<path d="M47578 36613 c7 -3 16 -2 19 1 4 3 -2 6 -13 5 -11 0 -14 -3 -6 -6z"/>
<path d="M47840 36380 c0 -6 5 -10 11 -10 7 0 18 -8 26 -17 13 -16 13 -16 4 3
-11 23 -41 40 -41 24z"/>
<path d="M47920 36300 c0 -6 5 -10 11 -10 7 0 18 -8 26 -17 13 -16 13 -16 4 3
-11 23 -41 40 -41 24z"/>
<path d="M47810 36256 c0 -2 7 -9 15 -16 12 -10 15 -10 15 4 0 9 -7 16 -15 16
-8 0 -15 -2 -15 -4z"/>
<path d="M48000 36196 c0 -9 5 -16 10 -16 6 0 10 4 10 9 0 6 -4 13 -10 16 -5
3 -10 -1 -10 -9z"/>
<path d="M48080 36110 c0 -5 5 -10 11 -10 5 0 7 5 4 10 -3 6 -8 10 -11 10 -2
0 -4 -4 -4 -10z"/>
<path d="M48140 36110 c0 -5 5 -10 11 -10 5 0 7 5 4 10 -3 6 -8 10 -11 10 -2
0 -4 -4 -4 -10z"/>
<path d="M48180 36063 c0 -12 -6 -23 -12 -26 -7 -2 -9 -8 -5 -13 4 -5 11 -4
15 2 4 6 13 13 20 15 10 3 9 9 -2 24 -15 20 -15 20 -16 -2z"/>
<path d="M48560 35740 c0 -6 5 -10 11 -10 7 0 18 -8 26 -17 13 -16 13 -16 4 3
-11 23 -41 40 -41 24z"/>
<path d="M48640 35662 c0 -8 37 -42 45 -42 3 0 1 8 -4 19 -11 19 -41 36 -41
23z"/>
<path d="M48530 35616 c0 -2 7 -9 15 -16 12 -10 15 -10 15 4 0 9 -7 16 -15 16
-8 0 -15 -2 -15 -4z"/>
<path d="M48829 35503 c6 -12 16 -25 22 -28 20 -13 15 0 -9 25 -22 23 -24 23
-13 3z"/>
<path d="M48900 35423 c0 -12 -6 -23 -12 -26 -7 -2 -9 -8 -5 -13 4 -5 11 -4
15 2 4 6 13 13 20 15 10 3 9 9 -2 24 -15 20 -15 20 -16 -2z"/>
<path d="M49340 35226 c0 -2 7 -7 16 -10 8 -3 12 -2 9 4 -6 10 -25 14 -25 6z"/>
<path d="M49235 35150 c3 -5 15 -10 26 -10 10 0 19 5 19 10 0 6 -12 10 -26 10
-14 0 -23 -4 -19 -10z"/>
<path d="M49280 35100 c0 -6 5 -10 11 -10 7 0 18 -8 26 -17 13 -16 13 -16 4 3
-11 23 -41 40 -41 24z"/>
<path d="M49360 35022 c0 -8 37 -42 45 -42 3 0 1 8 -4 19 -11 19 -41 36 -41
23z"/>
<path d="M49250 34976 c0 -2 7 -9 15 -16 12 -10 15 -10 15 4 0 9 -7 16 -15 16
-8 0 -15 -2 -15 -4z"/>
<path d="M49520 34884 c0 -11 59 -64 71 -64 6 0 -5 16 -25 35 -37 35 -46 40
-46 29z"/>
<path d="M49738 34693 c7 -3 16 -2 19 1 4 3 -2 6 -13 5 -11 0 -14 -3 -6 -6z"/>
<path d="M49920 34540 c0 -6 5 -10 11 -10 7 0 18 -8 26 -17 13 -16 13 -16 4 3
-11 23 -41 40 -41 24z"/>
<path d="M50000 34460 c0 -6 5 -10 11 -10 7 0 18 -8 26 -17 13 -16 13 -16 4 3
-11 23 -41 40 -41 24z"/>
<path d="M50093 34363 c-22 -8 -14 -23 12 -23 18 0 23 4 19 15 -6 16 -11 17
-31 8z"/>
<path d="M50240 34244 c0 -11 59 -64 71 -64 6 0 -5 16 -25 35 -37 35 -46 40
-46 29z"/>
<path d="M50378 34133 c7 -3 16 -2 19 1 4 3 -2 6 -13 5 -11 0 -14 -3 -6 -6z"/>
<path d="M50640 33900 c0 -6 5 -10 11 -10 7 0 18 -8 26 -17 13 -16 13 -16 4 3
-11 23 -41 40 -41 24z"/>
<path d="M50720 33820 c0 -6 5 -10 11 -10 7 0 18 -8 26 -17 13 -16 13 -16 4 3
-11 23 -41 40 -41 24z"/>
<path d="M50610 33776 c0 -2 7 -9 15 -16 12 -10 15 -10 15 4 0 9 -7 16 -15 16
-8 0 -15 -2 -15 -4z"/>
<path d="M50800 33716 c0 -9 5 -16 10 -16 6 0 10 4 10 9 0 6 -4 13 -10 16 -5
3 -10 -1 -10 -9z"/>
<path d="M50880 33630 c0 -5 5 -10 11 -10 5 0 7 5 4 10 -3 6 -8 10 -11 10 -2
0 -4 -4 -4 -10z"/>
<path d="M50940 33630 c0 -5 5 -10 11 -10 5 0 7 5 4 10 -3 6 -8 10 -11 10 -2
0 -4 -4 -4 -10z"/>
<path d="M50980 33583 c0 -12 -6 -23 -12 -26 -7 -2 -9 -8 -5 -13 4 -5 11 -4
15 2 4 6 13 13 20 15 10 3 9 9 -2 24 -15 20 -15 20 -16 -2z"/>
<path d="M51360 33260 c0 -6 5 -10 11 -10 7 0 18 -8 26 -17 13 -16 13 -16 4 3
-11 23 -41 40 -41 24z"/>
<path d="M51440 33182 c0 -8 37 -42 45 -42 3 0 1 8 -4 19 -11 19 -41 36 -41
23z"/>
<path d="M51330 33136 c0 -2 7 -9 15 -16 12 -10 15 -10 15 4 0 9 -7 16 -15 16
-8 0 -15 -2 -15 -4z"/>
<path d="M51629 33023 c6 -12 16 -25 22 -28 20 -13 15 0 -9 25 -22 23 -24 23
-13 3z"/>
<path d="M51700 32943 c0 -12 -6 -23 -12 -26 -7 -2 -9 -8 -5 -13 4 -5 11 -4
15 2 4 6 13 13 20 15 10 3 9 9 -2 24 -15 20 -15 20 -16 -2z"/>
<path d="M52140 32746 c0 -2 7 -7 16 -10 8 -3 12 -2 9 4 -6 10 -25 14 -25 6z"/>
<path d="M52035 32670 c3 -5 15 -10 26 -10 10 0 19 5 19 10 0 6 -12 10 -26 10
-14 0 -23 -4 -19 -10z"/>
<path d="M52080 32620 c0 -6 5 -10 11 -10 7 0 18 -8 26 -17 13 -16 13 -16 4 3
-11 23 -41 40 -41 24z"/>
<path d="M52160 32542 c0 -8 37 -42 45 -42 3 0 1 8 -4 19 -11 19 -41 36 -41
23z"/>
<path d="M52050 32496 c0 -2 7 -9 15 -16 12 -10 15 -10 15 4 0 9 -7 16 -15 16
-8 0 -15 -2 -15 -4z"/>
<path d="M52320 32404 c0 -11 59 -64 71 -64 6 0 -5 16 -25 35 -37 35 -46 40
-46 29z"/>
<path d="M52538 32213 c7 -3 16 -2 19 1 4 3 -2 6 -13 5 -11 0 -14 -3 -6 -6z"/>
<path d="M52720 32060 c0 -6 5 -10 11 -10 7 0 18 -8 26 -17 13 -16 13 -16 4 3
-11 23 -41 40 -41 24z"/>
<path d="M52800 31980 c0 -6 5 -10 11 -10 7 0 18 -8 26 -17 13 -16 13 -16 4 3
-11 23 -41 40 -41 24z"/>
<path d="M52893 31883 c-22 -8 -14 -23 12 -23 18 0 23 4 19 15 -6 16 -11 17
-31 8z"/>
<path d="M53040 31764 c0 -11 59 -64 71 -64 6 0 -5 16 -25 35 -37 35 -46 40
-46 29z"/>
<path d="M53178 31653 c7 -3 16 -2 19 1 4 3 -2 6 -13 5 -11 0 -14 -3 -6 -6z"/>
<path d="M53440 31420 c0 -6 5 -10 11 -10 7 0 18 -8 26 -17 13 -16 13 -16 4 3
-11 23 -41 40 -41 24z"/>
<path d="M53520 31340 c0 -6 5 -10 11 -10 7 0 18 -8 26 -17 13 -16 13 -16 4 3
-11 23 -41 40 -41 24z"/>
<path d="M53410 31296 c0 -2 7 -9 15 -16 12 -10 15 -10 15 4 0 9 -7 16 -15 16
-8 0 -15 -2 -15 -4z"/>
<path d="M53600 31236 c0 -9 5 -16 10 -16 6 0 10 4 10 9 0 6 -4 13 -10 16 -5
3 -10 -1 -10 -9z"/>
<path d="M53680 31150 c0 -5 5 -10 11 -10 5 0 7 5 4 10 -3 6 -8 10 -11 10 -2
0 -4 -4 -4 -10z"/>
<path d="M53740 31150 c0 -5 5 -10 11 -10 5 0 7 5 4 10 -3 6 -8 10 -11 10 -2
0 -4 -4 -4 -10z"/>
<path d="M53780 31103 c0 -12 -6 -23 -12 -26 -7 -2 -9 -8 -5 -13 4 -5 11 -4
15 2 4 6 13 13 20 15 10 3 9 9 -2 24 -15 20 -15 20 -16 -2z"/>
<path d="M32955 30948 c-427 -48 -846 -265 -1127 -583 -209 -236 -350 -519
-420 -837 -20 -91 -22 -131 -22 -348 0 -218 2 -257 22 -350 160 -735 723
-1279 1452 -1404 271 -46 589 -22 851 65 474 157 872 519 1071 974 110 251
154 487 145 775 -16 483 -195 884 -549 1226 -374 362 -903 541 -1423 482z"/>
<path d="M54160 30780 c0 -6 5 -10 11 -10 7 0 18 -8 26 -17 13 -16 13 -16 4 3
-11 23 -41 40 -41 24z"/>
<path d="M54240 30702 c0 -8 37 -42 45 -42 3 0 1 8 -4 19 -11 19 -41 36 -41
23z"/>
<path d="M54130 30656 c0 -2 7 -9 15 -16 12 -10 15 -10 15 4 0 9 -7 16 -15 16
-8 0 -15 -2 -15 -4z"/>
<path d="M54429 30543 c6 -12 16 -25 22 -28 20 -13 15 0 -9 25 -22 23 -24 23
-13 3z"/>
<path d="M54500 30463 c0 -12 -6 -23 -12 -26 -7 -2 -9 -8 -5 -13 4 -5 11 -4
15 2 4 6 13 13 20 15 10 3 9 9 -2 24 -15 20 -15 20 -16 -2z"/>
<path d="M54940 30266 c0 -2 7 -7 16 -10 8 -3 12 -2 9 4 -6 10 -25 14 -25 6z"/>
<path d="M54835 30190 c3 -5 15 -10 26 -10 10 0 19 5 19 10 0 6 -12 10 -26 10
-14 0 -23 -4 -19 -10z"/>
<path d="M54880 30140 c0 -6 5 -10 11 -10 7 0 18 -8 26 -17 13 -16 13 -16 4 3
-11 23 -41 40 -41 24z"/>
<path d="M54960 30062 c0 -8 37 -42 45 -42 3 0 1 8 -4 19 -11 19 -41 36 -41
23z"/>
<path d="M54850 30016 c0 -2 7 -9 15 -16 12 -10 15 -10 15 4 0 9 -7 16 -15 16
-8 0 -15 -2 -15 -4z"/>
<path d="M55120 29924 c0 -11 59 -64 71 -64 6 0 -5 16 -25 35 -37 35 -46 40
-46 29z"/>
<path d="M55338 29733 c7 -3 16 -2 19 1 4 3 -2 6 -13 5 -11 0 -14 -3 -6 -6z"/>
<path d="M55520 29580 c0 -6 5 -10 11 -10 7 0 18 -8 26 -17 13 -16 13 -16 4 3
-11 23 -41 40 -41 24z"/>
<path d="M55600 29500 c0 -6 5 -10 11 -10 7 0 18 -8 26 -17 13 -16 13 -16 4 3
-11 23 -41 40 -41 24z"/>
<path d="M55693 29403 c-22 -8 -14 -23 12 -23 18 0 23 4 19 15 -6 16 -11 17
-31 8z"/>
<path d="M55840 29284 c0 -11 59 -64 71 -64 6 0 -5 16 -25 35 -37 35 -46 40
-46 29z"/>
<path d="M55978 29173 c7 -3 16 -2 19 1 4 3 -2 6 -13 5 -11 0 -14 -3 -6 -6z"/>
<path d="M56240 28940 c0 -6 5 -10 11 -10 7 0 18 -8 26 -17 13 -16 13 -16 4 3
-11 23 -41 40 -41 24z"/>
<path d="M56320 28860 c0 -6 5 -10 11 -10 7 0 18 -8 26 -17 13 -16 13 -16 4 3
-11 23 -41 40 -41 24z"/>
<path d="M56210 28816 c0 -2 7 -9 15 -16 12 -10 15 -10 15 4 0 9 -7 16 -15 16
-8 0 -15 -2 -15 -4z"/>
<path d="M56400 28756 c0 -9 5 -16 10 -16 6 0 10 4 10 9 0 6 -4 13 -10 16 -5
3 -10 -1 -10 -9z"/>
<path d="M56480 28670 c0 -5 5 -10 11 -10 5 0 7 5 4 10 -3 6 -8 10 -11 10 -2
0 -4 -4 -4 -10z"/>
<path d="M56540 28670 c0 -5 5 -10 11 -10 5 0 7 5 4 10 -3 6 -8 10 -11 10 -2
0 -4 -4 -4 -10z"/>
<path d="M56580 28623 c0 -12 -6 -24 -12 -27 -10 -5 -10 -7 0 -12 6 -3 9 -10
6 -15 -3 -6 -11 -5 -20 2 -12 10 -13 9 -8 -6 6 -16 5 -16 -24 -1 -18 9 -33 12
-37 7 -9 -15 16 -25 63 -26 23 -1 37 2 31 6 -8 4 -8 8 -1 13 6 4 9 13 6 20 -3
8 2 16 11 18 14 3 14 5 1 23 -15 20 -15 20 -16 -2z m-65 -71 c-3 -3 -11 0 -18
7 -9 10 -8 11 6 5 10 -3 15 -9 12 -12z"/>
<path d="M56635 28570 c3 -5 8 -10 11 -10 2 0 4 5 4 10 0 6 -5 10 -11 10 -5 0
-7 -4 -4 -10z"/>
<path d="M56668 28572 c9 -6 5 -12 -13 -20 -32 -15 -36 -15 -32 -1 1 6 -5 14
-13 16 -13 4 -13 3 0 -6 13 -10 13 -11 0 -11 -9 -1 -5 -6 10 -15 31 -18 41
-18 38 -3 -2 6 6 13 17 15 15 3 17 2 6 -5 -9 -7 -10 -12 -2 -16 6 -4 12 -2 12
3 1 6 2 17 3 24 2 13 -13 27 -29 27 -5 0 -4 -4 3 -8z"/>
<path d="M56750 28572 c0 -7 -7 -9 -17 -5 -16 6 -16 5 -4 -10 11 -14 11 -17 0
-17 -11 0 -11 -2 1 -9 19 -13 31 -4 23 17 -6 14 -4 15 8 5 8 -6 17 -12 22 -12
4 -1 8 -1 10 -2 1 -1 16 -2 33 -3 23 -1 30 2 27 11 -3 8 -10 10 -17 5 -18 -13
-41 -8 -40 9 1 9 -4 16 -11 16 -7 0 -11 -7 -8 -16 3 -11 0 -10 -11 3 -9 11
-16 15 -16 8z"/>
<path d="M56878 28569 c6 -9 8 -20 4 -24 -4 -5 -2 -5 5 -2 6 4 14 1 16 -5 3
-8 6 -8 6 -2 1 6 -9 19 -21 30 -14 12 -18 13 -10 3z"/>
<path d="M56484 28520 c0 -12 4 -16 11 -11 5 5 25 7 43 6 17 -1 32 2 32 6 0 4
-12 7 -27 5 -16 -1 -35 1 -43 5 -11 5 -16 2 -16 -11z"/>
<path d="M32510 16370 c-795 -71 -2066 -183 -2825 -250 -759 -66 -1839 -161
-2400 -210 -561 -50 -1330 -117 -1710 -150 -379 -33 -699 -62 -710 -65 -19 -4
-936 -85 -3620 -320 -961 -84 -1086 -97 -1139 -117 -116 -45 -187 -140 -222
-294 -24 -108 -16 -330 16 -429 45 -142 117 -242 204 -284 33 -16 2357 -331
11886 -1608 11401 -1528 11851 -1587 11995 -1587 144 1 491 49 8265 1142 4463
628 8151 1147 8194 1153 67 10 85 17 116 45 129 117 182 524 92 704 -23 46
-36 60 -82 83 -65 34 1103 -80 -9495 921 -3932 372 -7386 699 -7675 727 -2562
248 -3511 334 -3523 320 -29 -35 -126 -206 -119 -212 4 -3 930 -92 2057 -198
1128 -106 2356 -221 2730 -257 7133 -672 12154 -1143 13310 -1249 281 -26 517
-51 526 -56 47 -25 23 -84 -38 -93 -21 -3 -3330 -431 -7354 -951 -4655 -601
-7347 -945 -7401 -945 -50 0 -1096 126 -2614 315 -1391 174 -2855 356 -3254
406 -1224 152 -12292 1534 -14775 1845 -1211 151 -1482 188 -1492 201 -18 23
-16 58 3 74 15 12 350 42 4349 394 99 8 257 22 350 30 94 9 274 24 400 35 127
11 253 23 280 25 28 3 203 19 390 35 187 16 390 34 450 40 61 5 139 12 175 15
36 3 162 14 280 25 118 10 251 22 295 25 44 3 96 8 115 10 51 6 152 15 2993
264 1428 125 2600 231 2603 234 5 4 -174 339 -179 336 -1 -1 -652 -59 -1447
-129z m19992 -3160 c40 -19 42 -38 9 -69 -55 -52 -224 -91 -391 -91 -141 0
-200 22 -185 69 11 36 116 74 285 105 50 9 255 -1 282 -14z"/>
</g>
</svg>
